<svg width="52" height="52" viewBox="0 0 52 52" fill="none" xmlns="http://www.w3.org/2000/svg">
<path d="M33.1759 23.8939C32.8139 23.8924 32.4555 23.9666 32.1238 24.1116C31.792 24.2567 31.4942 24.4694 31.2495 24.7362C31.0047 25.003 30.8184 25.318 30.7024 25.6609C30.5864 26.0039 30.5433 26.3673 30.5759 26.7279H35.9319C35.9665 26.3538 35.9196 25.9766 35.7945 25.6224C35.6693 25.2681 35.4688 24.9452 35.2069 24.6759C34.945 24.4065 34.6278 24.1972 34.2772 24.0622C33.9266 23.9272 33.5508 23.8698 33.1759 23.8939ZM19.4739 26.7799H16.2759V31.8239H18.8759C21.4759 31.8239 22.6199 30.9659 22.6199 29.2239C22.6199 27.4819 21.4239 26.7799 19.4739 26.7799ZM21.7359 22.1519C21.7359 20.7739 20.8259 19.9419 19.2659 19.9419H16.2759V24.4659H18.4859C20.7999 24.4659 21.7359 23.6339 21.7359 22.1519Z" fill="#1A65E0"/>
<path d="M26.0001 0C20.8577 0 15.8309 1.52488 11.5552 4.3818C7.27952 7.23872 3.94703 11.2994 1.97915 16.0503C0.0112654 20.8012 -0.503622 26.0289 0.499596 31.0724C1.50281 36.1159 3.97908 40.7487 7.61525 44.3849C11.2514 48.021 15.8842 50.4973 20.9277 51.5005C25.9712 52.5037 31.199 51.9889 35.9499 50.021C40.7008 48.0531 44.7614 44.7206 47.6183 40.4449C50.4753 36.1692 52.0001 31.1424 52.0001 26.0001C52.0001 22.5857 51.3276 19.2047 50.021 16.0503C48.7144 12.8958 46.7992 10.0296 44.3849 7.61524C41.9706 5.20091 39.1043 3.28576 35.9499 1.97914C32.7954 0.672511 29.4144 0 26.0001 0ZM20.0201 34.3201H13V17.42H20.0201C23.0621 17.42 25.0641 19.006 25.0641 21.58C25.1 22.4448 24.8265 23.294 24.2929 23.9754C23.7592 24.6568 23.0002 25.1257 22.1521 25.2981C22.6896 25.3105 23.2189 25.4325 23.7076 25.6566C24.1963 25.8807 24.6342 26.2021 24.9944 26.6013C25.3546 27.0004 25.6296 27.4689 25.8025 27.978C25.9754 28.4871 26.0427 29.0261 26.0001 29.5621C26.0001 32.5781 23.4001 34.3201 20.0201 34.3201ZM29.2501 18.72H37.0501V20.02H29.2501V18.72ZM39.0001 28.7301H30.4201V29.0941C30.3754 29.4891 30.4159 29.8892 30.5388 30.2673C30.6618 30.6455 30.8644 30.9928 31.133 31.286C31.4015 31.5792 31.7298 31.8115 32.0957 31.9671C32.4616 32.1227 32.8566 32.198 33.2541 32.1881C33.8122 32.2748 34.3828 32.1567 34.8606 31.8557C35.3385 31.5546 35.6914 31.0909 35.8541 30.5501H39.0001C38.72 31.7981 37.9896 32.8992 36.9488 33.6426C35.9079 34.3861 34.6295 34.7199 33.3581 34.5801C32.5455 34.6621 31.7247 34.5651 30.9536 34.2959C30.1825 34.0266 29.4798 33.5917 28.8949 33.0217C28.31 32.4516 27.8571 31.7603 27.5681 30.9964C27.2791 30.2325 27.161 29.4145 27.2221 28.6001V27.4561C27.1669 26.6669 27.283 25.8751 27.5625 25.135C27.8419 24.3949 28.2782 23.724 28.8413 23.1683C29.4044 22.6126 30.081 22.1853 30.8247 21.9157C31.5685 21.646 32.3617 21.5404 33.1501 21.606C33.9359 21.5557 34.7233 21.6742 35.4594 21.9538C36.1955 22.2333 36.8632 22.6672 37.4175 23.2265C37.9718 23.7857 38.3999 24.4572 38.6728 25.1957C38.9458 25.9343 39.0574 26.7228 39.0001 27.5081V28.7301Z" fill="#1A65E0"/>
</svg>
