<svg width="53" height="52" viewBox="0 0 53 52" fill="none" xmlns="http://www.w3.org/2000/svg">
<path fill-rule="evenodd" clip-rule="evenodd" d="M26.3245 0C11.9595 0 0.324467 11.9296 0.324467 26.6584C0.321518 32.2547 2.03739 37.7099 5.22864 42.25C8.41989 46.7901 12.9245 50.1845 18.1033 51.9518C19.4033 52.1837 19.8895 51.384 19.8895 50.6829C19.8895 50.0511 19.8557 47.953 19.8557 45.7191C13.3245 46.9534 11.6345 44.0876 11.1145 42.5867C10.8207 41.819 9.55449 39.4544 8.44949 38.8199C7.53948 38.3214 6.23948 37.0871 8.41569 37.0551C10.4645 37.0205 11.9257 38.9878 12.4145 39.7876C14.7545 43.8183 18.4933 42.6854 19.9857 41.9869C20.2145 40.2541 20.8957 39.0891 21.6445 38.4227C15.8595 37.7562 9.81449 35.4556 9.81449 25.2588C9.81449 22.3584 10.8207 19.9618 12.4795 18.093C12.2195 17.4266 11.3095 14.6941 12.7395 11.0286C12.7395 11.0286 14.9157 10.3301 19.8895 13.7637C22.0061 13.1614 24.193 12.8582 26.3895 12.8627C28.5995 12.8627 30.8095 13.1612 32.8895 13.761C37.8608 10.2955 40.0396 11.0312 40.0396 11.0312C41.4696 14.6968 40.5596 17.4292 40.2996 18.0957C41.9558 19.9618 42.9646 22.3264 42.9646 25.2588C42.9646 35.4903 36.8884 37.7562 31.1033 38.4227C32.0445 39.2544 32.8583 40.8539 32.8583 43.3545C32.8583 46.9187 32.8245 49.7845 32.8245 50.6855C32.8245 51.384 33.3133 52.2157 34.6133 51.9491C39.7744 50.1625 44.2592 46.7614 47.4363 42.2246C50.6135 37.6877 52.3231 32.2436 52.3246 26.6584C52.3246 11.9296 40.6896 0 26.3245 0Z" fill="#1A65E0"/>
</svg>
