<svg width="53" height="52" viewBox="0 0 53 52" fill="none" xmlns="http://www.w3.org/2000/svg">
<path d="M26.1624 0C11.8028 0 0.162354 11.6404 0.162354 26.0001C0.162354 40.3597 11.8028 52.0001 26.1624 52.0001C40.522 52.0001 52.1625 40.3597 52.1625 26.0001C52.1625 11.6404 40.522 0 26.1624 0ZM19.7978 36.7765H14.5328V19.8332H19.7978V36.7765ZM17.1328 17.7532C15.4699 17.7532 14.3947 16.575 14.3947 15.118C14.3947 13.6311 15.5024 12.4882 17.2005 12.4882C18.8986 12.4882 19.9387 13.6311 19.9712 15.118C19.9712 16.575 18.8986 17.7532 17.1328 17.7532ZM39.027 36.7765H33.762V27.3867C33.762 25.2011 32.9983 23.7169 31.0943 23.7169C29.6399 23.7169 28.776 24.7217 28.3941 25.6886C28.2533 26.0326 28.218 26.5201 28.218 27.0049V36.7738H22.9503V25.2363C22.9503 23.1211 22.8826 21.3526 22.8122 19.8305H27.3866L27.6276 22.184H27.7333C28.4266 21.079 30.1247 19.4486 32.9658 19.4486C36.4297 19.4486 39.027 21.7696 39.027 26.7584V36.7765Z" fill="#2E2E91"/>
</svg>
