<svg width="57" height="65" viewBox="0 0 57 65" fill="none" xmlns="http://www.w3.org/2000/svg">
<g clip-path="url(#clip0_110_25)">
<path d="M17.875 43.375C14.825 41.925 12.475 39.825 10.825 37.075C9.125 34.325 8.275 31.125 8.275 27.475C8.275 23.825 9.125 20.525 10.825 17.575C12.475 14.675 14.875 12.375 18.025 10.675C21.125 9.025 24.725 8.2 28.825 8.19999C32.925 8.19999 36.525 9.02499 39.625 10.675C42.725 12.375 45.125 14.675 46.825 17.575C48.475 20.525 49.3 23.825 49.3 27.475C49.3 32.575 47.775 36.775 44.725 40.075C41.675 43.375 37.55 45.3 32.35 45.85L32.35 25L26.8 25L26.8 53.125L32.05 53.125C36.35 52.725 40.3 51.375 43.9 49.075C47.45 46.775 50.275 43.75 52.375 40C54.425 36.25 55.45 32.075 55.45 27.475C55.45 22.625 54.325 18.2 52.075 14.2C49.775 10.2 46.6 7.02499 42.55 4.67499C38.5 2.37499 33.925 1.22499 28.825 1.22499C23.725 1.22499 19.15 2.375 15.1 4.675C11 7.025 7.825 10.2 5.575 14.2C3.275 18.2 2.125 22.625 2.125 27.475C2.125 33.025 3.5 37.925 6.25 42.175C9 46.475 12.875 49.6 17.875 51.55L17.875 43.375Z" fill="black"/>
<line y1="-2.85" x2="48" y2="-2.85" transform="matrix(9.93477e-08 1 1 -9.93477e-08 23 16)" stroke="#1A65E0" stroke-width="5.7"/>
<line y1="-2.85" x2="19.5" y2="-2.85" transform="matrix(-1 5.56363e-08 5.56363e-08 1 38 64)" stroke="#1A65E0" stroke-width="5.7"/>
</g>
<defs>
<clipPath id="clip0_110_25">
<rect width="57" height="65" fill="white"/>
</clipPath>
</defs>
</svg>
